<svg width="800" height="600" xmlns="http://www.w3.org/2000/svg">

 <g>
  <title>Layer 1</title>
  <g stroke="null">

   <title stroke="null">leaves</title>
   <path stroke="null" fill="#01a437" d="m415.92676,578.14109c231.19563,-30.03354 359.07781,-206.38298 237.97321,-576.57108c-94.93067,77.55628 -224.68559,128.04594 -289.83059,231.88807c42.62739,43.67095 77.80837,92.02651 87.57343,155.21666c58.81332,-83.69832 123.2003,-159.90127 157.08818,-244.64061c-34.73508,203.36402 -89.17864,280.24363 -172.91739,384.18986a417.53441,487.40738 0 0 1 -19.88684,50.07325l0,-0.15615zm-66.43809,20.82048c-179.11531,-50.85402 -264.63762,-201.33402 -133.32207,-468.56485c106.12259,119.30134 293.35315,195.08788 171.17841,446.91155a120.74788,140.95463 0 0 1 -8.15985,15.251c-21.98254,-124.50646 -109.77891,-223.03937 -135.55154,-327.55816c5.97497,170.77997 48.15647,220.64501 113.47982,334.42892c-2.54159,0 -5.08318,-0.31231 -7.62477,-0.67667l0,0.2082z" class="cls-1"/>
  </g>
 </g>
</svg>